# AST/ASF file generated using VICON BodyLanguage
# -----------------------------------------------
:version 1.10
:name VICON
:units
  mass 1.0
  length 0.45
  angle deg
:documentation
   .ast/.asf automatically generated from VICON data using
   VICON BodyBuilder and BodyLanguage model FoxedUp or BRILLIANT.MOD
:root
   order TX TY TZ RX RY RZ
   axis XYZ
   position 0 0 0  
   orientation 0 0 0 
:bonedata
  begin
     id 1 
     name lhipjoint
     direction 0.700308 -0.549349 0.455834 
     length 2.59063 
     axis 0 0 0  XYZ
  end
  begin
     id 2 
     name lfemur
     direction 0.34202 -0.939693 0  
     length 6.31066  
     axis 0 0 20  XYZ
    dof rx ry rz
    limits (-160.0 20.0)
           (-70.0 70.0)
           (-60.0 70.0)
  end
  begin
     id 3 
     name ltibia
     direction 0.34202 -0.939693 0   
     length 7.36093   
     axis 0 0 20   XYZ
    dof rx
    limits (-10.0 170.0)
  end
  begin
     id 4 
     name lfoot
     direction 0.0905332 -0.248738 0.96433   
     length 2.0233   
     axis -90 7.62852e-016 20   XYZ
    dof rx rz
    limits (-45.0 90.0)
           (-70.0 20.0)
  end
  begin
     id 5 
     name ltoes
     direction 1.53573e-011 -4.21855e-011 1   
     length 1.01524   
     axis -90 7.62852e-016 20   XYZ
    dof rx
    limits (-90.0 20.0)
  end
  begin
     id 6 
     name rhipjoint
     direction -0.61416 -0.607328 0.503944   
     length 2.34332  
     axis 0 0 0  XYZ 
  end
  begin
     id 7 
     name rfemur
     direction -0.34202 -0.939693 0   
     length 6.58548   
     axis 0 0 -20   XYZ
    dof rx ry rz
    limits (-160.0 20.0)
           (-70.0 70.0)
           (-70.0 60.0)
  end
  begin
     id 8 
     name rtibia
     direction -0.34202 -0.939693 0   
     length 7.20707   
     axis 0 0 -20   XYZ
    dof rx
    limits (-10.0 170.0)
 end
 begin
     id 9 
     name rfoot
     direction -0.136772 -0.375778 0.916561   
     length 1.92184  
     axis -90 -7.62852e-016 -20   XYZ
    dof rx rz
    limits (-45.0 90.0)
           (-20.0 70.0)
  end
  begin
     id 10 
     name rtoes
     direction -1.53535e-011 -4.21828e-011 1   
     length 0.951089   
     axis -90 -7.62852e-016 -20   XYZ
    dof rx
    limits (-90.0 20.0)
  end
  begin
     id 11 
     name lowerback
     direction -0.0444974 0.988086 -0.147332   
     length 1.9609   
     axis 0 0 0   XYZ
    dof rx ry rz
    limits (-20.0 45.0)
           (-30.0 30.0)
           (-30.0 30.0)
  end
  begin
     id 12 
     name upperback
     direction 0.00613146 0.999513 0.0306081   
     length 1.94944   
     axis 0 0 0   XYZ
    dof rx ry rz
    limits (-20.0 45.0)
           (-30.0 30.0)
           (-30.0 30.0)
  end
  begin
     id 13 
     name thorax
     direction 0.0254621 0.994518 0.101418   
     length 2.0119   
     axis 0 0 0   XYZ
    dof rx ry rz
    limits (-20.0 45.0)
           (-30.0 30.0)
           (-30.0 30.0)
  end
  begin
     id 14 
     name lowerneck
     direction 0.0168698 0.977854 0.208608   
     length 1.6375   
     axis 0 0 0   XYZ
    dof rx ry rz
    limits (-20.0 45.0)
           (-30.0 30.0)
           (-30.0 30.0)
  end
  begin
     id 15 
     name upperneck
     direction -0.0283988 0.989338 -0.142843   
     length 1.6851   
     axis 0 0 0   XYZ
    dof rx ry rz
    limits (-20.0 45.0)
           (-30.0 30.0)
           (-30.0 30.0)
  end
  begin
     id 16
     name head
     direction -0.0129422 0.99741 -0.0707489  
     length 1.69029  
     axis 0 0 0   XYZ
    dof rx ry rz
    limits (-20.0 45.0)
           (-30.0 30.0)
           (-30.0 30.0)
  end
  begin
     id 17 
     name lclavicle
     direction 0.820295 0.564628 -0.0911715  
     length 3.16484  
     axis 0 0 0   XYZ
    dof ry rz
    limits (-20.0 10.0)
           (0.0 20.0)
  end
  begin
     id 18 
     name lhumerus
     direction 1 -4.48969e-011 1.00186e-027   
     length 5.17853   
     axis 180 -30 -90   XYZ
    dof rx ry rz
    limits (-60.0 90.0)
           (-90.0 90.0)
           (-90.0 90.0)
  end
  begin
     id 19
     name lradius
     direction 1 -4.48966e-011 -1.52922e-027   
     length 3.40399   
     axis 180 -30 -90   XYZ
    dof rx
    limits (-10.0 170.0)
  end
  begin
     id 20
     name lwrist
     direction 1 -4.48981e-011 -3.80893e-027   
     length 1.70199   
     axis 1.1049e-015 90 90   XYZ
    dof ry
    limits (-180.0 0.0)
 end
  begin
     id 21 
     name lhand
     direction 1 -4.48957e-011 -7.61786e-027   
     length 0.708964   
     axis 4.86085e-015 90 90   XYZ
    dof rx rz
    limits (-90.0 90.0)
           (-45.0 45.0)
  end
  begin
     id 22 
     name lfingers
     direction 1 -4.48929e-011 -1.52357e-026   
     length 0.571585   
     axis 9.7217e-015 90 90   XYZ
    dof rx
    limits (0.0 90.0)
  end
  begin
     id 23
     name lthumb
     direction 0.707107 -6.34905e-011 0.707107   
     length 0.820685   
     axis -90 45 2.85299e-015   XYZ
    dof rx rz
    limits (-45.0 45.0)
           (-45.0 45.0)
  end
  begin
     id 24 
     name rclavicle
     direction -0.858602 0.463947 -0.218075   
     length 3.35137  
     axis 0 0 0   XYZ 
    dof ry rz
    limits (-10.0 20.0)
           (-20.0 0.0)
  end
  begin
     id 25 
     name rhumerus
     direction -1 -4.48969e-011 -1.98511e-027  
     length 5.42351   
     axis 180 30 90   XYZ
    dof rx ry rz
    limits (-90.0 60.0)
           (-90.0 90.0)
           (-90.0 90.0)
  end
  begin
     id 26 
     name rradius
     direction -1 -4.48961e-011 -2.82624e-027   
     length 3.42066   
     axis 180 30 90   XYZ
    dof rx
    limits (-10.0 170.0)
  end
  begin
     id 27 
     name rwrist
     direction -1 -4.48966e-011 -3.80893e-027   
     length 1.71033   
     axis 1.1049e-015 -90 -90   XYZ
    dof ry
    limits (-180.0 0.0)
  end
  begin
     id 28
     name rhand
     direction -1 -4.48964e-011 -7.61786e-027   
     length 0.743608   
     axis 4.86085e-015 -90 -90   XYZ
    dof rx rz
    limits (-90.0 90.0)
           (-45.0 45.0)
  end
  begin
     id 29
     name rfingers
     direction -1 -4.48961e-011 -1.52357e-026   
     length 0.599516   
     axis 9.7217e-015 -90 -90   XYZ
    dof rx
    limits (0.0 90.0)
  end
  begin
     id 30
     name rthumb
     direction -0.707107 -6.34913e-011 0.707107   
     length 0.860789   
     axis -90 -45 -2.85299e-015   XYZ
    dof rx rz
    limits (-45.0 45.0)
           (-45.0 45.0)
  end
:hierarchy
  begin
    root lhipjoint rhipjoint lowerback
    lhipjoint lfemur
    lfemur ltibia
    ltibia lfoot
    lfoot ltoes
    rhipjoint rfemur
    rfemur rtibia
    rtibia rfoot
    rfoot rtoes
    lowerback upperback
    upperback thorax
    thorax lowerneck lclavicle rclavicle
    lowerneck upperneck
    upperneck head
    lclavicle lhumerus
    lhumerus lradius
    lradius lwrist
    lwrist lhand lthumb
    lhand lfingers
    rclavicle rhumerus
    rhumerus rradius
    rradius rwrist
    rwrist rhand rthumb
    rhand rfingers
  end

#!OML:ASF E:\mmandel\Project 1\Capture day 1\Session 2\Subject.ASF
:FULLY-SPECIFIED
:DEGREES
408
root 4.92558 6.39594 -0.939368 27.0379 63.6785 -301.492
lowerback 36.5188 -4.09481 -4.83174
upperback 14.5522 -5.03328 1.32459
thorax -1.64251 -2.06149 5.50655
lowerneck -5.74533 2.57434 4.54904
upperneck 21.2691 9.06999 -24.1062
head 8.9292 3.06491 -8.33791
rclavicle 0 6.36111e-015
rhumerus -150.406 -35.7584 99.3736
rradius 9.23091
rwrist 138.869
rhand -24.1445 43.6947
rfingers 7.12502
rthumb 2.33776 13.7278
lclavicle 0 6.36111e-015
lhumerus -4.79417 -19.3758 50.468
lradius 22.1296
lwrist 15.4968
lhand -18.4517 -21.7568
lfingers 7.12502
lthumb 7.83435 8.078
rfemur -96.1381 -37.2368 11.2116
rtibia 145.825
rfoot -26.6994 8.75454
rtoes 8.52762
lfemur -51.9581 41.6532 10.2918
ltibia 119.989
lfoot -19.9057 -28.753
ltoes -12.8908
409
root 5.05246 6.40557 -0.963226 27.1636 63.5519 -302.033
lowerback 35.4158 -4.60052 -3.80181
upperback 14.7557 -5.35272 0.801405
thorax -1.15343 -2.17395 4.47223
lowerneck -5.77076 2.61542 5.09885
upperneck 21.3212 9.04105 -24.1028
head 8.9631 3.08243 -8.45017
rclavicle -9.06458e-014 3.81667e-014
rhumerus -151.656 -32.8759 101.132
rradius 9.53023
rwrist 142.104
rhand -24.0582 43.7341
rfingers 7.12502
rthumb 2.42113 13.7681
lclavicle -9.06458e-014 3.81667e-014
lhumerus -3.95748 -20.2098 49.0575
lradius 22.5822
lwrist 15.933
lhand -18.3455 -21.6386
lfingers 7.12502
lthumb 7.93688 8.19237
rfemur -97.1413 -38.5303 11.2259
rtibia 146.375
rfoot -26.6975 9.38915
rtoes 6.46207
lfemur -52.1134 42.9487 10.6598
ltibia 120.992
lfoot -21.0468 -28.1732
ltoes -14.5535
410
root 5.16558 6.41582 -0.987963 26.5969 63.1167 -302.709
lowerback 36.2975 -4.15 -4.38784
upperback 14.342 -4.98195 1.52088
thorax -1.83029 -2.03312 5.46731
lowerneck -6.03661 2.56545 4.95571
upperneck 21.843 9.32057 -24.7416
head 9.28946 3.13531 -8.686
rclavicle -3.18055e-015 1.59028e-014
rhumerus -152.45 -30.6456 104.347
rradius 9.75325
rwrist 145.227
rhand -23.5387 43.4313
rfingers 7.12502
rthumb 2.92286 13.4716
lclavicle -3.18055e-015 1.59028e-014
lhumerus -3.79436 -19.9614 49.6988
lradius 22.6206
lwrist 15.1666
lhand -18.4212 -21.8565
lfingers 7.12502
lthumb 7.86385 7.9772
rfemur -97.2978 -39.0942 10.5925
rtibia 146.872
rfoot -26.665 10.1362
rtoes 5.16859
lfemur -51.1674 44.2422 11.566
ltibia 121.828
lfoot -21.883 -27.6927
ltoes -15.4843
411
root 5.27581 6.42893 -1.01288 26.2337 62.7647 -303.17
lowerback 35.4895 -4.70726 -3.3615
upperback 14.977 -5.33862 0.617839
thorax -0.994785 -2.13543 4.04301
lowerneck -6.2322 2.70567 5.44604
upperneck 21.4728 9.24206 -24.448
head 9.18165 3.14251 -8.64448
rclavicle -1.30403e-013 -1.27222e-014
rhumerus -154.325 -27.5321 105.685
rradius 10.4139
rwrist 148.326
rhand -23.546 42.8744
rfingers 7.12502
rthumb 2.91581 12.9146
lclavicle -1.30403e-013 -1.27222e-014
lhumerus -2.66056 -20.8669 47.666
lradius 23.2543
lwrist 15.8669
lhand -18.6681 -21.8653
lfingers 7.12502
lthumb 7.62554 7.97718
rfemur -97.3367 -40.2587 9.84996
rtibia 147.388
rfoot -26.6965 11.3749
rtoes 5.32724
lfemur -50.251 45.3376 12.3743
ltibia 122.655
lfoot -22.2997 -27.2355
ltoes -15.4222
412
root 5.38158 6.44572 -1.0364 25.6372 62.4078 -303.71
lowerback 36.8446 -4.41697 -4.57153
upperback 14.3786 -5.37295 1.55382
thorax -1.90776 -2.22938 5.73884
lowerneck -6.15079 2.8711 4.47513
upperneck 21.4843 9.81878 -25.034
head 9.28894 3.32109 -8.63224
rclavicle -7.4743e-014 5.725e-014
rhumerus -155.172 -27.1875 108.64
rradius 10.7304
rwrist 151.023
rhand -23.646 42.0817
rfingers 7.12502
rthumb 2.81927 12.1206
lclavicle -7.4743e-014 5.725e-014
lhumerus -3.52033 -18.981 48.9052
lradius 23.0342
lwrist 14.9147
lhand -18.2864 -22.5082
lfingers 7.12502
lthumb 7.99388 7.32066
rfemur -96.9708 -40.9228 9.03374
rtibia 147.72
rfoot -26.7672 11.9518
rtoes 3.9308
lfemur -48.9904 46.3514 13.4703
ltibia 123.398
lfoot -22.3645 -26.875
ltoes -15.3349
413
root 5.50056 6.44681 -1.0616 25.7475 62.429 -303.911
lowerback 36.9699 -4.54824 -4.82104
upperback 14.1645 -5.61665 1.93097
thorax -2.09964 -2.37617 6.35739
lowerneck -6.15891 2.9572 4.02545
upperneck 21.47 10.0914 -25.3069
head 9.34313 3.40258 -8.62543
rclavicle 6.36111e-015 6.99722e-014
rhumerus -155.847 -27.2033 110.201
rradius 11.1452
rwrist 152.201
rhand -23.4044 41.6169
rfingers 7.12502
rthumb 3.05254 11.659
lclavicle 6.36111e-015 6.99722e-014
lhumerus -3.56066 -18.013 49.1096
lradius 23.0889
lwrist 14.5392
lhand -17.8783 -22.9327
lfingers 7.12502
lthumb 8.3878 6.88077
rfemur -97.4372 -42.9121 8.64763
rtibia 148.225
rfoot -26.9885 12.8979
rtoes 2.19707
lfemur -48.9704 47.341 14.0772
ltibia 124.386
lfoot -21.8756 -26.8695
ltoes -15.01
414
root 5.61815 6.44473 -1.08427 25.2132 62.3458 -304.561
lowerback 36.8832 -4.6904 -4.34304
upperback 14.324 -5.62126 1.83905
thorax -1.94977 -2.35568 6.00332
lowerneck -6.25936 2.90536 4.06475
upperneck 21.3391 9.94468 -25.2263
head 9.28526 3.33738 -8.60596
rclavicle 5.40694e-014 -9.54166e-015
rhumerus -156.305 -27.0347 110.688
rradius 11.72
rwrist 152.313
rhand -22.9638 41.0477
rfingers 7.12502
rthumb 3.47802 11.0963
lclavicle 5.40694e-014 -9.54166e-015
lhumerus -2.65581 -18.3307 48.4007
lradius 23.4566
lwrist 14.9361
lhand -17.5133 -23.1826
lfingers 7.12502
lthumb 8.74003 6.61645
rfemur -97.4832 -44.2846 8.18881
rtibia 148.677
rfoot -27.1385 13.578
rtoes 1.68623
lfemur -48.2515 48.5727 15.5341
ltibia 125.381
lfoot -21.6107 -27.3267
ltoes -14.5631
415
root 5.73547 6.44519 -1.1057 24.6261 62.3507 -305.314
lowerback 36.4941 -4.92732 -3.56221
upperback 14.6834 -5.63697 1.58109
thorax -1.52268 -2.32394 5.30028
lowerneck -6.61799 2.8788 4.31478
upperneck 21.2329 9.76464 -24.989
head 9.27934 3.2579 -8.56801
rclavicle 5.40694e-014 2.22639e-014
rhumerus -156.711 -26.9044 110.73
rradius 12.2577
rwrist 152.152
rhand -22.7096 40.181
rfingers 7.12502
rthumb 3.72356 10.2338
lclavicle 5.40694e-014 2.22639e-014
lhumerus -1.31831 -18.4498 47.3097
lradius 23.8728
lwrist 15.6514
lhand -16.6028 -23.6944
lfingers 7.12502
lthumb 9.61856 6.06606
rfemur -97.5006 -45.7471 7.92241
rtibia 149.088
rfoot -27.3729 14.1697
rtoes 0.948184
lfemur -47.4622 49.7729 17.1897
ltibia 126.368
lfoot -21.6358 -27.9887
ltoes -14.2525
416
root 5.84692 6.44365 -1.13108 24.2182 62.107 -305.593
lowerback 37.5796 -4.6422 -4.2314
upperback 14.2876 -5.49578 2.1458
thorax -2.21652 -2.28451 6.26027
lowerneck -6.36074 2.85139 3.85275
upperneck 21.0709 9.85449 -25.3433
head 9.19681 3.27867 -8.60186
rclavicle 3.18055e-015 6.36111e-015
rhumerus -156.93 -27.1639 112.23
rradius 12.6869
rwrist 153.161
rhand -22.4064 39.6538
rfingers 7.12502
rthumb 4.01629 9.71193
lclavicle 3.18055e-015 6.36111e-015
lhumerus -1.54106 -18.6341 47.895
lradius 24.1059
lwrist 14.6744
lhand -17.985 -23.5204
lfingers 7.12502
lthumb 8.2848 6.29713
rfemur -97.24 -47.0237 6.85653
rtibia 149.553
rfoot -27.391 15.3781
rtoes 0.795093
lfemur -46.1261 50.58 18.7509
ltibia 127.175
lfoot -21.6275 -28.6744
ltoes -13.6565
417
root 5.9674 6.42809 -1.1584 24.7146 62.1671 -305.392
lowerback 37.7307 -4.67456 -4.67846
upperback 14.0123 -5.6838 2.56452
thorax -2.46744 -2.41088 7.01588
lowerneck -5.90243 2.88007 3.2331
upperneck 20.5686 9.9154 -25.6028
head 8.93741 3.31323 -8.54791
rclavicle 3.33958e-014 -7.95139e-014
rhumerus -157.333 -27.5399 113.567
rradius 13.1699
rwrist 154.165
rhand -22.1478 39.0761
rfingers 7.12502
rthumb 4.26609 9.13907
lclavicle 3.33958e-014 -7.95139e-014
lhumerus -1.57984 -18.1696 48.2157
lradius 24.3519
lwrist 14.5849
lhand -18.434 -23.6836
lfingers 7.12502
lthumb 7.85142 6.15056
rfemur -98.0003 -49.9753 6.0708
rtibia 150.3
rfoot -27.474 17.5568
rtoes 1.24232
lfemur -46.0954 51.3911 19.478
ltibia 128.152
lfoot -21.4354 -29.4091
ltoes -12.7928
418
root 6.08596 6.41339 -1.18284 24.9487 62.2433 -305.504
lowerback 37.3186 -4.88626 -4.42054
upperback 14.083 -5.8578 2.50032
thorax -2.26362 -2.4948 6.84811
lowerneck -5.87446 2.90233 3.12689
upperneck 20.2961 9.85719 -25.5141
head 8.81689 3.29769 -8.47957
rclavicle -6.67916e-014 1.59028e-014
rhumerus -157.448 -27.7696 113.86
rradius 13.4969
rwrist 154.444
rhand -21.9867 37.9167
rfingers 7.12502
rthumb 4.42158 7.98288
lclavicle -6.67916e-014 1.59028e-014
lhumerus -0.917486 -18.7076 47.5546
lradius 24.8403
lwrist 15.2117
lhand -19.1058 -23.7493
lfingers 7.12502
lthumb 7.203 6.10813
rfemur -98.8576 -52.4846 5.64145
rtibia 150.97
rfoot -27.5454 19.1248
rtoes 0.98043
lfemur -45.8818 52.3735 20.5996
ltibia 129.086
lfoot -21.4128 -30.1755
ltoes -12.1667
419
root 6.1968 6.40132 -1.20595 24.6987 62.3503 -305.887
lowerback 37.0608 -5.0976 -3.78832
upperback 14.3254 -5.89955 2.22677
thorax -1.99352 -2.48037 6.22067
lowerneck -6.21747 2.85861 3.55414
upperneck 20.3419 9.70783 -25.3929
head 8.88051 3.23072 -8.52967
rclavicle -1.90833e-014 -6.04305e-014
rhumerus -158.015 -26.3857 114.474
rradius 14.1425
rwrist 155.955
rhand -21.8354 36.9702
rfingers 7.12502
rthumb 4.56775 7.03946
lclavicle -1.90833e-014 -6.04305e-014
lhumerus 0.295341 -19.5292 46.4206
lradius 25.3836
lwrist 15.9261
lhand -19.4411 -23.8516
lfingers 7.12502
lthumb 6.8794 6.01658
rfemur -99.1743 -54.4501 5.14168
rtibia 151.521
rfoot -27.6191 20.1793
rtoes 0.7381
lfemur -45.1297 53.1524 22.2676
ltibia 129.905
lfoot -21.3776 -31.1179
ltoes -11.7387
420
root 6.30598 6.3841 -1.22702 23.6805 62.4468 -306.924
lowerback 37.262 -5.15909 -3.18335
upperback 14.4718 -5.75321 2.16363
thorax -1.97771 -2.36999 5.79688
lowerneck -6.52584 2.80161 3.81472
upperneck 20.4525 9.5644 -25.2046
head 8.95048 3.15967 -8.52525
rclavicle 5.08889e-014 4.77083e-014
rhumerus -159.539 -22.3619 116.766
rradius 15.5655
rwrist 160.565
rhand -22.131 36.687
rfingers 7.12502
rthumb 4.28225 6.75026
lclavicle 5.08889e-014 4.77083e-014
lhumerus 1.4902 -19.9194 45.5906
lradius 25.8807
lwrist 16.6395
lhand -19.1539 -24.0274
lfingers 7.12502
lthumb 7.15658 5.83157
rfemur -98.9156 -55.7595 4.56755
rtibia 152.015
rfoot -27.7209 20.9752
rtoes 0.613961
lfemur -43.6837 54.0569 25.0081
ltibia 130.697
lfoot -21.4373 -32.4094
ltoes -12.1486
